<svg xmlns:xlink="http://www.w3.org/1999/xlink" width="960" xmlns="http://www.w3.org/2000/svg" height="1117" id="screenshot-40481670-409e-11ed-8382-f17135407c6d" viewBox="0 0 960 1117" style="-webkit-print-color-adjust: exact;" fill="none" version="1.1"><g id="shape-40481670-409e-11ed-8382-f17135407c6d" rx="0" ry="0"><g id="shape-a3268780-4086-11ed-82e7-398062b4bb4c"><defs><linearGradient id="fill-color-gradient_c6a3afe0-409e-11ed-8bdf-2bd0c9c7dee2_0" x1="1.1420802277491213" y1="0.02936989805196383" x2="0.5" y2="1" gradientTransform="matrix(1,0,0,1,0,0)"><stop offset="0" stop-color="#ffffff" stop-opacity="0"/><stop offset="1" stop-color="#ffffff" stop-opacity="0.15625"/></linearGradient><pattern patternUnits="userSpaceOnUse" x="0" y="264.0000000000002" height="853" width="845" data-loading="false" patternTransform="matrix(1,0,0,1,0,0)" id="fill-0-c6a3afe0-409e-11ed-8bdf-2bd0c9c7dee2"><g><rect width="845" height="853" style="fill: url(&quot;#fill-color-gradient_c6a3afe0-409e-11ed-8bdf-2bd0c9c7dee2_0&quot;);"/></g></pattern></defs><g id="fills-a3268780-4086-11ed-82e7-398062b4bb4c"><path rx="0" ry="0" d="M845,264L0,1117L845,1117L845,264Z" fill="url(#fill-0-c6a3afe0-409e-11ed-8bdf-2bd0c9c7dee2)"/></g></g><g id="shape-af73fd10-407c-11ed-8968-a74d3144a67a"><g id="fills-af73fd10-407c-11ed-8968-a74d3144a67a"><rect rx="0" ry="0" x="844.0000123929767" y="0.000010901866829726714" transform="matrix(1,0,0,1,0,0)" width="115.99997521404659" height="1079.999982078239" style="fill: rgb(81, 222, 130); fill-opacity: 1;"/></g></g><g id="shape-d5a910f0-407d-11ed-8968-a74d3144a67a"><g id="fills-d5a910f0-407d-11ed-8968-a74d3144a67a"><path rx="0" ry="0" d="M960,176L960,118L902,118C869.989,118,844,143.989,844,176" style="fill: rgb(255, 255, 255); fill-opacity: 0.8;"/></g></g><g id="shape-04be8d80-407d-11ed-8968-a74d3144a67a"><g id="fills-04be8d80-407d-11ed-8968-a74d3144a67a"><ellipse rx="58" ry="58" cx="902" cy="59.0000000000002" transform="matrix(1,0,0,1,0,0)" style="fill: rgb(255, 255, 255); fill-opacity: 0.8;"/></g></g><g id="shape-21278081-407d-11ed-8968-a74d3144a67a"><g id="fills-21278081-407d-11ed-8968-a74d3144a67a"><path rx="0" ry="0" d="M728,58C728,25.989,753.989,0,786,0L844,58C844,90.011,818.011,116,786,116L728,116L728,58ZM786,0L786,58L844,58" style="fill: rgb(255, 255, 255); fill-opacity: 0.8;"/></g></g><g id="shape-f9c15b20-4085-11ed-82e7-398062b4bb4c"><g id="fills-f9c15b20-4085-11ed-82e7-398062b4bb4c"><path rx="0" ry="0" d="M902,176C902,176,901.979,234,901.979,234C872.986,234,844,234,844,234C844,201.989,869.989,176,902,176ZM902,176L901.979,234" style="fill: rgb(255, 255, 255); fill-opacity: 0.8;"/></g></g><g id="shape-bb660b30-407d-11ed-8968-a74d3144a67a"><g id="fills-bb660b30-407d-11ed-8968-a74d3144a67a"><path rx="0" ry="0" d="M786,176C753.989,176,728,176,728,176C728,143.989,753.989,118,786,118C818.011,118,844,143.989,844,176C844,176,818.011,176,786,176Z" style="fill: rgb(255, 255, 255); fill-opacity: 0.8;"/></g></g><g id="shape-3aa9b830-4086-11ed-82e7-398062b4bb4c"><g id="fills-3aa9b830-4086-11ed-82e7-398062b4bb4c"><path rx="0" ry="0" d="M960,293C960,293,959.979,235,959.979,235C930.986,235,902,235,902,235C902,235,960,293,960,293ZM960,293L959.979,235" style="fill: rgb(255, 255, 255); fill-opacity: 0.8;"/></g></g><g id="shape-a8d192f0-407d-11ed-8968-a74d3144a67a"><g id="fills-a8d192f0-407d-11ed-8968-a74d3144a67a"><path rx="0" ry="0" d="M727,59C727,26.989,701.011,1,669,1C636.989,1,611,26.989,611,59C611,59,727,59,727,59Z" style="fill: rgb(255, 255, 255); fill-opacity: 0.8;"/></g></g></g></svg>